<mxfile host="app.diagrams.net" modified="2021-09-04T04:54:17.689Z" agent="5.0 (X11)" etag="W3-K70vJSEeZsgcuGtfM" version="15.0.6" type="github">
  <diagram id="GkZrepXT9D_2XtfRvnet" name="Page-1">
    <mxGraphModel dx="2272" dy="715" grid="1" gridSize="10" guides="1" tooltips="1" connect="1" arrows="1" fold="1" page="1" pageScale="1" pageWidth="850" pageHeight="1100" math="0" shadow="0">
      <root>
        <mxCell id="0" />
        <mxCell id="1" parent="0" />
        <mxCell id="jRpDgoHlWcwvIVcQOy-D-1" value="" style="rounded=0;whiteSpace=wrap;html=1;" vertex="1" parent="1">
          <mxGeometry x="-50" y="40" width="940" height="600" as="geometry" />
        </mxCell>
        <mxCell id="jRpDgoHlWcwvIVcQOy-D-2" value="&lt;div style=&quot;font-size: 20px&quot;&gt;&lt;b&gt;&lt;font style=&quot;font-size: 20px&quot;&gt;Coronavirus diagrama nivel 1&lt;/font&gt;&lt;/b&gt;&lt;/div&gt;" style="text;html=1;strokeColor=none;fillColor=none;align=center;verticalAlign=middle;whiteSpace=wrap;rounded=0;" vertex="1" parent="1">
          <mxGeometry x="70" y="60" width="290" height="20" as="geometry" />
        </mxCell>
        <mxCell id="jRpDgoHlWcwvIVcQOy-D-3" value="" style="rounded=0;whiteSpace=wrap;html=1;dashed=1;strokeWidth=2;" vertex="1" parent="1">
          <mxGeometry x="170" y="120" width="510" height="460" as="geometry" />
        </mxCell>
        <mxCell id="jRpDgoHlWcwvIVcQOy-D-10" value="&lt;p style=&quot;margin: 0px ; margin-top: 4px ; text-align: center&quot;&gt;&lt;b&gt;Material genetico&lt;br&gt;&lt;/b&gt;&lt;/p&gt;&lt;hr size=&quot;1&quot;&gt;&lt;div style=&quot;height: 2px&quot;&gt;ARN, es el material genetico&lt;/div&gt;&lt;div style=&quot;height: 2px&quot;&gt;&lt;br&gt;&lt;/div&gt;" style="verticalAlign=top;align=left;overflow=fill;fontSize=12;fontFamily=Helvetica;html=1;strokeWidth=2;" vertex="1" parent="1">
          <mxGeometry x="210" y="470" width="160" height="50" as="geometry" />
        </mxCell>
        <mxCell id="jRpDgoHlWcwvIVcQOy-D-11" value="&lt;p style=&quot;margin: 0px ; margin-top: 4px ; text-align: center&quot;&gt;&lt;b&gt;Emsable&lt;/b&gt;&lt;/p&gt;&lt;hr size=&quot;1&quot;&gt;&lt;div style=&quot;height: 2px&quot;&gt;La proteina E permite el &lt;br&gt;ensamble con el virus&lt;br&gt;&lt;/div&gt;&lt;div style=&quot;height: 2px&quot;&gt;&lt;br&gt;&lt;/div&gt;" style="verticalAlign=top;align=left;overflow=fill;fontSize=12;fontFamily=Helvetica;html=1;strokeWidth=2;" vertex="1" parent="1">
          <mxGeometry x="210" y="280" width="160" height="70" as="geometry" />
        </mxCell>
        <mxCell id="jRpDgoHlWcwvIVcQOy-D-12" value="Celula sana" style="html=1;strokeWidth=2;" vertex="1" parent="1">
          <mxGeometry x="-20" y="160" width="110" height="50" as="geometry" />
        </mxCell>
        <mxCell id="jRpDgoHlWcwvIVcQOy-D-13" value="Entra en contacto&lt;br&gt;con el covid&lt;br&gt;&lt;div&gt;y se produce el&lt;/div&gt;" style="endArrow=none;html=1;rounded=0;exitX=1;exitY=0.5;exitDx=0;exitDy=0;entryX=0;entryY=0.5;entryDx=0;entryDy=0;" edge="1" parent="1" source="jRpDgoHlWcwvIVcQOy-D-12" target="jRpDgoHlWcwvIVcQOy-D-22">
          <mxGeometry relative="1" as="geometry">
            <mxPoint x="340" y="370" as="sourcePoint" />
            <mxPoint x="500" y="370" as="targetPoint" />
          </mxGeometry>
        </mxCell>
        <mxCell id="jRpDgoHlWcwvIVcQOy-D-14" value="" style="endArrow=none;html=1;rounded=0;exitX=0.5;exitY=1;exitDx=0;exitDy=0;entryX=0.5;entryY=0;entryDx=0;entryDy=0;" edge="1" parent="1" source="jRpDgoHlWcwvIVcQOy-D-11" target="jRpDgoHlWcwvIVcQOy-D-10">
          <mxGeometry relative="1" as="geometry">
            <mxPoint x="340" y="370" as="sourcePoint" />
            <mxPoint x="500" y="370" as="targetPoint" />
          </mxGeometry>
        </mxCell>
        <mxCell id="jRpDgoHlWcwvIVcQOy-D-17" value="Este permite que &lt;br&gt;el material genetido &lt;br&gt;entre en la celula" style="edgeLabel;html=1;align=center;verticalAlign=bottom;resizable=0;points=[];" vertex="1" connectable="0" parent="jRpDgoHlWcwvIVcQOy-D-14">
          <mxGeometry x="0.6444" y="-4" relative="1" as="geometry">
            <mxPoint x="4" y="-14" as="offset" />
          </mxGeometry>
        </mxCell>
        <mxCell id="jRpDgoHlWcwvIVcQOy-D-18" value="&lt;p style=&quot;margin: 0px ; margin-top: 4px ; text-align: center&quot;&gt;&lt;b&gt;Camuflacion&lt;br&gt;&lt;/b&gt;&lt;/p&gt;&lt;hr size=&quot;1&quot;&gt;&lt;div style=&quot;height: 2px&quot;&gt;La nucleoproteina camufla &lt;br&gt;el ARN para que la&lt;br&gt;celula trabaje para el virus&lt;/div&gt;&lt;div style=&quot;height: 2px&quot;&gt;&lt;br&gt;&lt;/div&gt;&lt;div style=&quot;height: 2px&quot;&gt;&lt;br&gt;&lt;/div&gt;" style="verticalAlign=top;align=left;overflow=fill;fontSize=12;fontFamily=Helvetica;html=1;strokeWidth=2;" vertex="1" parent="1">
          <mxGeometry x="490" y="455" width="160" height="80" as="geometry" />
        </mxCell>
        <mxCell id="jRpDgoHlWcwvIVcQOy-D-21" value="Es camuflado por" style="endArrow=none;html=1;rounded=0;exitX=0;exitY=0.5;exitDx=0;exitDy=0;" edge="1" parent="1" source="jRpDgoHlWcwvIVcQOy-D-18" target="jRpDgoHlWcwvIVcQOy-D-10">
          <mxGeometry relative="1" as="geometry">
            <mxPoint x="340" y="370" as="sourcePoint" />
            <mxPoint x="500" y="370" as="targetPoint" />
          </mxGeometry>
        </mxCell>
        <mxCell id="jRpDgoHlWcwvIVcQOy-D-22" value="&lt;p style=&quot;margin: 0px ; margin-top: 4px ; text-align: center&quot;&gt;&lt;b&gt;Penetracion&lt;/b&gt;&lt;br&gt;&lt;/p&gt;&lt;hr size=&quot;1&quot;&gt;&lt;div style=&quot;height: 2px&quot;&gt;La glicoproteina permite la&lt;br&gt;penetracion del virus en la celula&lt;br&gt;&lt;/div&gt;&lt;div style=&quot;height: 2px&quot;&gt;&lt;br&gt;&lt;/div&gt;" style="verticalAlign=top;align=left;overflow=fill;fontSize=12;fontFamily=Helvetica;html=1;strokeWidth=2;" vertex="1" parent="1">
          <mxGeometry x="210" y="150" width="160" height="70" as="geometry" />
        </mxCell>
        <mxCell id="jRpDgoHlWcwvIVcQOy-D-23" value="" style="endArrow=none;html=1;rounded=0;exitX=0.5;exitY=1;exitDx=0;exitDy=0;entryX=0.5;entryY=0;entryDx=0;entryDy=0;" edge="1" parent="1" source="jRpDgoHlWcwvIVcQOy-D-22" target="jRpDgoHlWcwvIVcQOy-D-11">
          <mxGeometry relative="1" as="geometry">
            <mxPoint x="340" y="370" as="sourcePoint" />
            <mxPoint x="500" y="370" as="targetPoint" />
          </mxGeometry>
        </mxCell>
        <mxCell id="jRpDgoHlWcwvIVcQOy-D-25" value="&lt;p style=&quot;margin: 0px ; margin-top: 4px ; text-align: center&quot;&gt;&lt;b&gt;Propagacion&lt;br&gt;&lt;/b&gt;&lt;/p&gt;&lt;hr size=&quot;1&quot;&gt;&lt;div style=&quot;height: 2px&quot;&gt;La celula toma el ARN &lt;br&gt;camuflageado y sin darse &lt;br&gt;cuenta lo reproduce y esto &lt;br&gt;lleva a que se propague por &lt;br&gt;las celulas&lt;br&gt;&lt;/div&gt;&lt;div style=&quot;height: 2px&quot;&gt;&lt;br&gt;&lt;/div&gt;&lt;div style=&quot;height: 2px&quot;&gt;&lt;br&gt;&lt;/div&gt;" style="verticalAlign=top;align=left;overflow=fill;fontSize=12;fontFamily=Helvetica;html=1;strokeWidth=2;" vertex="1" parent="1">
          <mxGeometry x="490" y="200" width="160" height="110" as="geometry" />
        </mxCell>
        <mxCell id="jRpDgoHlWcwvIVcQOy-D-27" value="" style="endArrow=none;html=1;rounded=0;entryX=0.5;entryY=0;entryDx=0;entryDy=0;exitX=0.5;exitY=1;exitDx=0;exitDy=0;" edge="1" parent="1" source="jRpDgoHlWcwvIVcQOy-D-25" target="jRpDgoHlWcwvIVcQOy-D-18">
          <mxGeometry relative="1" as="geometry">
            <mxPoint x="340" y="340" as="sourcePoint" />
            <mxPoint x="500" y="340" as="targetPoint" />
          </mxGeometry>
        </mxCell>
        <mxCell id="jRpDgoHlWcwvIVcQOy-D-28" value="Celula infectada." style="html=1;strokeWidth=2;" vertex="1" parent="1">
          <mxGeometry x="740" y="230" width="110" height="50" as="geometry" />
        </mxCell>
        <mxCell id="jRpDgoHlWcwvIVcQOy-D-29" value="" style="endArrow=none;html=1;rounded=0;exitX=0;exitY=0.5;exitDx=0;exitDy=0;" edge="1" parent="1" source="jRpDgoHlWcwvIVcQOy-D-28" target="jRpDgoHlWcwvIVcQOy-D-25">
          <mxGeometry relative="1" as="geometry">
            <mxPoint x="340" y="340" as="sourcePoint" />
            <mxPoint x="500" y="340" as="targetPoint" />
          </mxGeometry>
        </mxCell>
      </root>
    </mxGraphModel>
  </diagram>
</mxfile>
